# AST/ASF file generated using VICON BodyLanguage
# -----------------------------------------------
:version 1.10
:name VICON
:units
  mass 1.0
  length 0.45
  angle deg
:documentation
   .ast/.asf automatically generated from VICON data using
   VICON BodyBuilder and BodyLanguage model FoxedUp or BRILLIANT.MOD
:root
   order TX TY TZ RX RY RZ
   axis XYZ
   position 0 0 0  
   orientation 0 0 0 
:bonedata
  begin
     id 1 
     name lhipjoint
     direction 0.645893 -0.654526 0.392961 
     length 2.38111 
     axis 0 0 0  XYZ
  end
  begin
     id 2 
     name lfemur
     direction 0.34202 -0.939693 0  
     length 6.6822  
     axis 0 0 20  XYZ
    dof rx ry rz
    limits (-160.0 20.0)
           (-70.0 70.0)
           (-60.0 70.0)
  end
  begin
     id 3 
     name ltibia
     direction 0.34202 -0.939693 0   
     length 6.93904   
     axis 0 0 20   XYZ
    dof rx
    limits (-10.0 170.0)
  end
  begin
     id 4 
     name lfoot
     direction 0.0694967 -0.190941 0.979138   
     length 2.13616   
     axis -90 7.62852e-016 20   XYZ
    dof rx rz
    limits (-45.0 90.0)
           (-70.0 20.0)
  end
  begin
     id 5 
     name ltoes
     direction 1.535e-011 -4.2202e-011 1   
     length 1.07536   
     axis -90 7.62852e-016 20   XYZ
    dof rx
    limits (-90.0 20.0)
  end
  begin
     id 6 
     name rhipjoint
     direction -0.700219 -0.612087 0.367481   
     length 2.54621  
     axis 0 0 0  XYZ 
  end
  begin
     id 7 
     name rfemur
     direction -0.34202 -0.939693 0   
     length 6.55353   
     axis 0 0 -20   XYZ
    dof rx ry rz
    limits (-160.0 20.0)
           (-70.0 70.0)
           (-70.0 60.0)
  end
  begin
     id 8 
     name rtibia
     direction -0.34202 -0.939693 0   
     length 6.8736   
     axis 0 0 -20   XYZ
    dof rx
    limits (-10.0 170.0)
 end
 begin
     id 9 
     name rfoot
     direction -0.0679995 -0.186827 0.980037   
     length 2.1218  
     axis -90 -7.62852e-016 -20   XYZ
    dof rx rz
    limits (-45.0 90.0)
           (-20.0 70.0)
  end
  begin
     id 10 
     name rtoes
     direction -1.53589e-011 -4.21772e-011 1   
     length 1.06864   
     axis -90 -7.62852e-016 -20   XYZ
    dof rx
    limits (-90.0 20.0)
  end
  begin
     id 11 
     name lowerback
     direction -0.0416607 0.996347 -0.0745409   
     length 2.12205   
     axis 0 0 0   XYZ
    dof rx ry rz
    limits (-20.0 45.0)
           (-30.0 30.0)
           (-30.0 30.0)
  end
  begin
     id 12 
     name upperback
     direction -0.000153993 0.999276 -0.0380568   
     length 2.12759   
     axis 0 0 0   XYZ
    dof rx ry rz
    limits (-20.0 45.0)
           (-30.0 30.0)
           (-30.0 30.0)
  end
  begin
     id 13 
     name thorax
     direction 0.0187671 0.999821 -0.00241421   
     length 2.13704   
     axis 0 0 0   XYZ
    dof rx ry rz
    limits (-20.0 45.0)
           (-30.0 30.0)
           (-30.0 30.0)
  end
  begin
     id 14 
     name lowerneck
     direction 0.0268157 0.964865 0.261374   
     length 1.65253   
     axis 0 0 0   XYZ
    dof rx ry rz
    limits (-20.0 45.0)
           (-30.0 30.0)
           (-30.0 30.0)
  end
  begin
     id 15 
     name upperneck
     direction 0.00263774 0.939908 -0.341418   
     length 1.72375   
     axis 0 0 0   XYZ
    dof rx ry rz
    limits (-20.0 45.0)
           (-30.0 30.0)
           (-30.0 30.0)
  end
  begin
     id 16
     name head
     direction -0.00526001 0.989001 -0.147818  
     length 1.74878  
     axis 0 0 0   XYZ
    dof rx ry rz
    limits (-20.0 45.0)
           (-30.0 30.0)
           (-30.0 30.0)
  end
  begin
     id 17 
     name lclavicle
     direction 0.881214 0.461162 -0.103884  
     length 3.25108  
     axis 0 0 0   XYZ
    dof ry rz
    limits (-20.0 10.0)
           (0.0 20.0)
  end
  begin
     id 18 
     name lhumerus
     direction 1 -4.4899e-011 3.38092e-027   
     length 4.87408   
     axis 180 -30 -90   XYZ
    dof rx ry rz
    limits (-60.0 90.0)
           (-90.0 90.0)
           (-90.0 90.0)
  end
  begin
     id 19
     name lradius
     direction 1 -4.48931e-011 9.96288e-027   
     length 2.76729   
     axis 180 -30 -90   XYZ
    dof rx
    limits (-10.0 170.0)
  end
  begin
     id 20
     name lwrist
     direction 1 -4.4896e-011 1.50617e-026   
     length 1.38364   
     axis -9.31234e-015 90 90   XYZ
    dof ry
    limits (-180.0 0.0)
 end
  begin
     id 21 
     name lhand
     direction 1 -4.49038e-011 3.01286e-026   
     length 0.98922   
     axis -1.92217e-014 90 90   XYZ
    dof rx rz
    limits (-90.0 90.0)
           (-45.0 45.0)
  end
  begin
     id 22 
     name lfingers
     direction 1 -4.49051e-011 6.02588e-026   
     length 0.797535   
     axis -3.84436e-014 90 90   XYZ
    dof rx
    limits (0.0 90.0)
  end
  begin
     id 23
     name lthumb
     direction 0.707107 -6.34901e-011 0.707107   
     length 1.14511   
     axis -90 45 2.19363e-014   XYZ
    dof rx rz
    limits (-45.0 45.0)
           (-45.0 45.0)
  end
  begin
     id 24 
     name rclavicle
     direction -0.893894 0.441652 -0.0767889   
     length 3.29361  
     axis 0 0 0   XYZ 
    dof ry rz
    limits (-10.0 20.0)
           (-20.0 0.0)
  end
  begin
     id 25 
     name rhumerus
     direction -1 -4.48945e-011 8.0491e-028  
     length 4.71404   
     axis 180 30 90   XYZ
    dof rx ry rz
    limits (-90.0 60.0)
           (-90.0 90.0)
           (-90.0 90.0)
  end
  begin
     id 26 
     name rradius
     direction -1 -4.48986e-011 9.27795e-027   
     length 2.83468   
     axis 180 30 90   XYZ
    dof rx
    limits (-10.0 170.0)
  end
  begin
     id 27 
     name rwrist
     direction -1 -4.49029e-011 1.5064e-026   
     length 1.41734   
     axis -9.31234e-015 -90 -90   XYZ
    dof ry
    limits (-180.0 0.0)
  end
  begin
     id 28
     name rhand
     direction -1 -4.48857e-011 3.01165e-026   
     length 0.868195   
     axis -1.92217e-014 -90 -90   XYZ
    dof rx rz
    limits (-90.0 90.0)
           (-45.0 45.0)
  end
  begin
     id 29
     name rfingers
     direction -1 -4.49048e-011 6.02585e-026   
     length 0.699961   
     axis -3.84436e-014 -90 -90   XYZ
    dof rx
    limits (0.0 90.0)
  end
  begin
     id 30
     name rthumb
     direction -0.707107 -6.34854e-011 0.707107   
     length 1.00501   
     axis -90 -45 -2.19363e-014   XYZ
    dof rx rz
    limits (-45.0 45.0)
           (-45.0 45.0)
  end
:hierarchy
  begin
    root lhipjoint rhipjoint lowerback
    lhipjoint lfemur
    lfemur ltibia
    ltibia lfoot
    lfoot ltoes
    rhipjoint rfemur
    rfemur rtibia
    rtibia rfoot
    rfoot rtoes
    lowerback upperback
    upperback thorax
    thorax lowerneck lclavicle rclavicle
    lowerneck upperneck
    upperneck head
    lclavicle lhumerus
    lhumerus lradius
    lradius lwrist
    lwrist lhand lthumb
    lhand lfingers
    rclavicle rhumerus
    rhumerus rradius
    rradius rwrist
    rwrist rhand rthumb
    rhand rfingers
  end

#!OML:ASF H:\ManfredObstacles\Project 1\Capture day 2\Session 1\male.ASF
:FULLY-SPECIFIED
:DEGREES
81
root 2.7895 15.2232 22.2507 -175.104 -19.1103 -176.688
lowerback 12.8214 -1.39833 -3.40751
upperback 7.86641 -3.12572 -0.0170706
thorax 1.24432 -2.06782 2.24046
lowerneck -34.9766 1.49276 1.03825
upperneck 39.0711 0.141948 -0.705188
head 21.9794 -0.410385 -0.726228
rclavicle 3.45885e-014 1.43125e-014
rhumerus -23.1885 2.76678 -89.2267
rradius 42.179
rwrist 20.0179
rhand -9.53353 -9.66341
rfingers 7.12502
rthumb 16.4328 -38.9874
lclavicle 3.45885e-014 1.43125e-014
lhumerus -10.8758 -12.5851 88.4354
lradius 28.0795
lwrist -38.9808
lhand -3.36569 12.276
lfingers 7.12502
lthumb 22.363 41.0016
rfemur -35.5672 4.78697 21.706
rtibia 34.9215
rfoot -2.34272 -6.491
rtoes -11.4955
lfemur -29.9557 -0.5301 -13.2526
ltibia 80.2513
lfoot 5.01759 22.1661
ltoes -5.21466
82
root 2.83955 15.232 22.1973 -174.799 -19.6115 -176.778
lowerback 13.2499 -1.28592 -3.52599
upperback 8.07776 -3.05072 -0.101517
thorax 1.23513 -2.05488 2.22382
lowerneck -34.8835 1.53376 1.34451
upperneck 38.5954 0.238069 -0.934729
head 21.6241 -0.333525 -0.852829
rclavicle -2.70347e-014 8.74653e-015
rhumerus -21.8882 3.315 -89.6769
rradius 42.1428
rwrist 19.9854
rhand -9.38832 -9.75928
rfingers 7.12502
rthumb 16.5726 -39.0716
lclavicle -2.70347e-014 8.74653e-015
lhumerus -10.0542 -12.2336 88.3551
lradius 27.2561
lwrist -39.6254
lhand -3.15091 12.474
lfingers 7.12502
lthumb 22.5691 41.1748
rfemur -35.7946 4.68683 21.8052
rtibia 35.1788
rfoot -2.50747 -6.96465
rtoes -11.4729
lfemur -31.669 -0.595433 -13.7085
ltibia 80.3855
lfoot 4.56424 22.8397
ltoes -5.31223
83
root 2.88862 15.2404 22.145 -174.474 -20.1185 -176.827
lowerback 13.6582 -1.18373 -3.61089
upperback 8.27294 -2.98284 -0.152754
thorax 1.22115 -2.04351 2.22265
lowerneck -34.7552 1.56801 1.58655
upperneck 38.135 0.3375 -1.13332
head 21.2788 -0.265173 -0.951001
rclavicle 7.4743e-014 -5.88403e-014
rhumerus -20.6399 3.88352 -90.0567
rradius 42.0724
rwrist 19.9235
rhand -9.19071 -9.88421
rfingers 7.12502
rthumb 16.7629 -39.1806
lclavicle 7.4743e-014 -5.88403e-014
lhumerus -9.25006 -11.8684 88.3259
lradius 26.4748
lwrist -40.2623
lhand -2.92991 12.6699
lfingers 7.12502
lthumb 22.7812 41.3448
rfemur -36.0547 4.6052 21.9354
rtibia 35.4208
rfoot -2.65419 -7.44479
rtoes -11.4484
lfemur -33.3541 -0.635547 -14.1368
ltibia 80.3336
lfoot 4.16075 23.611
ltoes -5.37066
84
root 2.93604 15.2481 22.0934 -174.139 -20.6355 -176.823
lowerback 14.048 -1.07801 -3.63785
upperback 8.44142 -2.89848 -0.181758
thorax 1.18677 -2.01931 2.20974
lowerneck -34.5469 1.58569 1.81481
upperneck 37.6541 0.406285 -1.31678
head 20.9068 -0.210661 -1.04594
rclavicle -1.86858e-014 -3.97569e-014
rhumerus -19.488 4.39832 -90.3732
rradius 41.9926
rwrist 19.8824
rhand -8.94651 -10.0398
rfingers 7.12502
rthumb 16.9979 -39.3161
lclavicle -1.86858e-014 -3.97569e-014
lhumerus -8.49152 -11.5646 88.3506
lradius 25.7466
lwrist -40.8466
lhand -2.70756 12.8488
lfingers 7.12502
lthumb 22.9946 41.4972
rfemur -36.3386 4.52742 22.108
rtibia 35.6417
rfoot -2.79834 -7.92128
rtoes -11.375
lfemur -35.0042 -0.659211 -14.5269
ltibia 80.1041
lfoot 3.78715 24.4384
ltoes -5.42296
85
root 2.98167 15.2553 22.0426 -173.8 -21.1619 -176.77
lowerback 14.4333 -0.978057 -3.58941
upperback 8.58375 -2.80825 -0.204239
thorax 1.12405 -1.98646 2.16071
lowerneck -34.2706 1.57398 1.9603
upperneck 37.2429 0.418042 -1.41473
head 20.5687 -0.182734 -1.10044
rclavicle -1.59028e-015 9.54166e-015
rhumerus -18.4348 4.84451 -90.6518
rradius 41.895
rwrist 19.9308
rhand -8.67396 -10.1899
rfingers 7.12502
rthumb 17.2603 -39.4434
lclavicle -1.59028e-015 9.54166e-015
lhumerus -7.79639 -11.3131 88.4042
lradius 25.0897
lwrist -41.3721
lhand -2.48893 13.0122
lfingers 7.12502
lthumb 23.2044 41.6344
rfemur -36.6379 4.44863 22.3211
rtibia 35.8419
rfoot -2.94625 -8.38988
rtoes -11.2577
lfemur -36.6058 -0.668731 -14.8766
ltibia 79.7009
lfoot 3.39635 25.2733
ltoes -5.43359
86
root 3.02548 15.2613 21.9924 -173.452 -21.7004 -176.684
lowerback 14.8051 -0.891125 -3.49326
upperback 8.72504 -2.72767 -0.208476
thorax 1.06764 -1.95677 2.10383
lowerneck -34.134 1.52978 2.01675
upperneck 36.9075 0.408898 -1.47662
head 20.3198 -0.171637 -1.12936
rclavicle -1.82882e-014 -1.27222e-014
rhumerus -17.4335 5.27578 -90.877
rradius 41.7959
rwrist 20.0719
rhand -8.40797 -10.3083
rfingers 7.12502
rthumb 17.5163 -39.5392
lclavicle -1.82882e-014 -1.27222e-014
lhumerus -7.12189 -11.0703 88.4908
lradius 24.5192
lwrist -41.8146
lhand -2.27341 13.1686
lfingers 7.12502
lthumb 23.4111 41.7645
rfemur -36.9619 4.35479 22.5624
rtibia 36.0377
rfoot -3.12402 -8.8462
rtoes -11.066
lfemur -38.1551 -0.680575 -15.2002
ltibia 79.1309
lfoot 2.96845 26.0744
ltoes -5.40913
87
root 3.06756 15.2663 21.9424 -173.094 -22.2707 -176.593
lowerback 15.155 -0.810969 -3.35978
upperback 8.86762 -2.64903 -0.21132
thorax 1.02365 -1.92641 2.02599
lowerneck -34.0728 1.4133 1.88476
upperneck 36.7197 0.30511 -1.38079
head 20.1813 -0.203861 -1.07693
rclavicle 3.57812e-014 3.49861e-014
rhumerus -16.495 5.6287 -91.063
rradius 41.6898
rwrist 20.36
rhand -8.15364 -10.3897
rfingers 7.12502
rthumb 17.761 -39.5986
lclavicle 3.57812e-014 3.49861e-014
lhumerus -6.48236 -10.8872 88.5989
lradius 24.0494
lwrist -42.1809
lhand -2.05869 13.3026
lfingers 7.12502
lthumb 23.6171 41.8722
rfemur -37.3053 4.23022 22.8068
rtibia 36.244
rfoot -3.32732 -9.29786
rtoes -10.8412
lfemur -39.6432 -0.721495 -15.5209
ltibia 78.3932
lfoot 2.53785 26.7935
ltoes -5.44718
88
root 3.1078 15.27 21.8923 -172.725 -22.8974 -176.52
lowerback 15.4985 -0.749964 -3.1896
upperback 9.00632 -2.58867 -0.229539
thorax 0.978728 -1.90255 1.91317
lowerneck -33.9912 1.31501 1.86426
upperneck 36.4842 0.204094 -1.3625
head 20.0108 -0.229549 -1.08047
rclavicle 6.36111e-014 2.94201e-014
rhumerus -15.6317 5.9102 -91.2404
rradius 41.5989
rwrist 20.6821
rhand -7.90379 -10.4327
rfingers 7.12502
rthumb 18.0014 -39.6196
lclavicle 6.36111e-014 2.94201e-014
lhumerus -5.92003 -10.8185 88.705
lradius 23.7121
lwrist -42.389
lhand -1.8849 13.4295
lfingers 7.12502
lthumb 23.7838 41.9774
rfemur -37.6687 4.04878 23.0342
rtibia 36.4818
rfoot -3.57153 -9.73885
rtoes -10.5963
lfemur -41.0591 -0.834863 -15.8553
ltibia 77.497
lfoot 2.11023 27.4157
ltoes -5.52851
89
root 3.14747 15.2722 21.8421 -172.34 -23.5296 -176.471
lowerback 15.8222 -0.687968 -3.02938
upperback 9.14692 -2.52644 -0.254482
thorax 0.947376 -1.8779 1.79716
lowerneck -33.9488 1.16819 1.72524
upperneck 36.3334 0.0371844 -1.23687
head 19.9017 -0.28318 -1.03045
rclavicle -5.56597e-015 4.29375e-014
rhumerus -14.838 6.18048 -91.4089
rradius 41.5537
rwrist 20.9041
rhand -7.60345 -10.4967
rfingers 7.12502
rthumb 18.2904 -39.6568
lclavicle -5.56597e-015 4.29375e-014
lhumerus -5.41717 -10.8231 88.8081
lradius 23.4897
lwrist -42.5005
lhand -1.7619 13.4868
lfingers 7.12502
lthumb 23.9017 42.0194
rfemur -38.0648 3.85618 23.2405
rtibia 36.7592
rfoot -3.84916 -10.1672
rtoes -10.2796
lfemur -42.3955 -0.966019 -16.2043
ltibia 76.457
lfoot 1.67398 27.9092
ltoes -5.68551
90
root 3.18679 15.2726 21.7916 -171.945 -24.1799 -176.455
lowerback 16.1428 -0.638282 -2.89291
upperback 9.30037 -2.48495 -0.276568
thorax 0.934811 -1.86585 1.69934
lowerneck -33.9359 1.03063 1.60251
upperneck 36.1682 -0.112954 -1.12945
head 19.7931 -0.330177 -0.987744
rclavicle 8.74653e-015 -2.14687e-014
rhumerus -14.0775 6.5088 -91.5594
rradius 41.5457
rwrist 20.9972
rhand -7.26052 -10.6055
rfingers 7.12502
rthumb 18.6202 -39.7343
lclavicle 8.74653e-015 -2.14687e-014
lhumerus -4.94464 -10.9021 88.9079
lradius 23.3788
lwrist -42.4648
lhand -1.68815 13.5254
lfingers 7.12502
lthumb 23.9725 42.0487
rfemur -38.4863 3.65534 23.4181
rtibia 37.084
rfoot -4.15548 -10.6012
rtoes -9.91491
lfemur -43.6444 -1.13637 -16.5662
ltibia 75.2933
lfoot 1.25244 28.2688
ltoes -5.92255
91
root 3.22626 15.2711 21.7411 -171.545 -24.7999 -176.462
lowerback 16.4634 -0.583564 -2.79574
upperback 9.46817 -2.44493 -0.294328
thorax 0.940524 -1.85786 1.62743
lowerneck -33.9663 0.914305 1.54982
upperneck 35.9661 -0.229388 -1.09869
head 19.6751 -0.364678 -0.985334
rclavicle -5.56597e-015 2.38542e-015
rhumerus -13.3427 6.91007 -91.6944
rradius 41.5601
rwrist 21.0061
rhand -6.88982 -10.7578
rfingers 7.12502
rthumb 18.9768 -39.8521
lclavicle -5.56597e-015 2.38542e-015
lhumerus -4.49005 -11.0289 88.9985
lradius 23.3527
lwrist -42.3343
lhand -1.6662 13.5205
lfingers 7.12502
lthumb 23.9935 42.041
rfemur -38.9355 3.48488 23.5742
rtibia 37.452
rfoot -4.47264 -11.0324
rtoes -9.52835
lfemur -44.8 -1.30068 -16.9338
ltibia 74.0319
lfoot 0.84273 28.4924
ltoes -6.23728
92
root 3.26585 15.2673 21.6908 -171.147 -25.3776 -176.486
lowerback 16.7914 -0.519469 -2.75637
upperback 9.64961 -2.40407 -0.289999
thorax 0.961393 -1.85423 1.61046
lowerneck -34.0035 0.789392 1.42288
upperneck 35.7658 -0.333093 -1.02783
head 19.5612 -0.399309 -0.947485
rclavicle -2.38542e-015 -9.54166e-015
rhumerus -12.6282 7.4248 -91.7798
rradius 41.575
rwrist 20.9995
rhand -6.53572 -10.9246
rfingers 7.12502
rthumb 19.3173 -39.9851
lclavicle -2.38542e-015 -9.54166e-015
lhumerus -4.05001 -11.2131 89.1032
lradius 23.4142
lwrist -42.0625
lhand -1.66915 13.5097
lfingers 7.12502
lthumb 23.9907 42.0306
rfemur -39.4075 3.35012 23.7143
rtibia 37.86
rfoot -4.78923 -11.4591
rtoes -9.13692
lfemur -45.8583 -1.4569 -17.2993
ltibia 72.699
lfoot 0.46433 28.6067
ltoes -6.60498
93
root 3.30532 15.2615 21.6406 -170.762 -25.9181 -176.521
lowerback 17.1402 -0.431908 -2.73161
upperback 9.82343 -2.33552 -0.29959
thorax 0.962814 -1.8366 1.58362
lowerneck -34.0186 0.623569 1.20198
upperneck 35.6496 -0.513692 -0.836072
head 19.4926 -0.46066 -0.856968
rclavicle 1.59028e-014 -2.14687e-014
rhumerus -11.9802 7.91983 -91.8561
rradius 41.568
rwrist 21.0836
rhand -6.20202 -11.084
rfingers 7.12502
rthumb 19.6381 -40.1121
lclavicle 1.59028e-014 -2.14687e-014
lhumerus -3.67051 -11.6074 89.1811
lradius 23.5648
lwrist -41.6726
lhand -1.6644 13.5386
lfingers 7.12502
lthumb 23.9952 42.0589
rfemur -39.8844 3.25924 23.8393
rtibia 38.2964
rfoot -5.09754 -11.899
rtoes -8.78512
lfemur -46.8142 -1.61297 -17.653
ltibia 71.3169
lfoot 0.144047 28.6401
ltoes -7.01268
94
root 3.34437 15.2542 21.5906 -170.391 -26.427 -176.562
lowerback 17.5132 -0.341155 -2.72801
upperback 9.99804 -2.26876 -0.306297
thorax 0.954696 -1.82148 1.57233
lowerneck -34.0041 0.499373 1.09228
upperneck 35.4774 -0.648454 -0.736252
head 19.385 -0.502434 -0.817527
rclavicle 4.13472e-014 -3.02153e-014
rhumerus -11.3543 8.47524 -91.9095
rradius 41.5114
rwrist 21.2298
rhand -5.91704 -11.2178
rfingers 7.12502
rthumb 19.9121 -40.2177
lclavicle 4.13472e-014 -3.02153e-014
lhumerus -3.33197 -12.1167 89.2416
lradius 23.7993
lwrist -41.1913
lhand -1.65506 13.6236
lfingers 7.12502
lthumb 24.0042 42.1427
rfemur -40.3574 3.19731 23.9567
rtibia 38.7501
rfoot -5.39595 -12.3432
rtoes -8.57495
lfemur -47.6641 -1.77792 -17.9832
ltibia 69.9046
lfoot -0.15792 28.6177
ltoes -7.41885
95
root 3.38296 15.2462 21.5406 -170.048 -26.8968 -176.602
lowerback 17.9056 -0.236376 -2.75911
upperback 10.1844 -2.19358 -0.294908
thorax 0.951993 -1.8061 1.59799
lowerneck -34.01 0.336996 0.830071
upperneck 35.4154 -0.82027 -0.520294
head 19.3495 -0.565016 -0.708339
rclavicle 1.35174e-014 -7.95139e-016
rhumerus -10.7199 9.09714 -91.9139
rradius 41.3686
rwrist 21.5218
rhand -5.70011 -11.3343
rfingers 7.12502
rthumb 20.1206 -40.3124
lclavicle 1.35174e-014 -7.95139e-016
lhumerus -3.00295 -12.6682 89.3055
lradius 24.0894
lwrist -40.7441
lhand -1.61084 13.7587
lfingers 7.12502
lthumb 24.0466 42.2722
rfemur -40.8055 3.17235 24.0739
rtibia 39.206
rfoot -5.7237 -12.7984
rtoes -8.42118
lfemur -48.3986 -1.94462 -18.2755
ltibia 68.4779
lfoot -0.433359 28.5526
ltoes -7.79988
